<svg width="146px" height="40px" viewBox="0 0 146 40" version="1.1" xmlns="http://www.w3.org/2000/svg" xmlns:xlink="http://www.w3.org/1999/xlink">
    <!-- Generator: Sketch 46.2 (44496) - http://www.bohemiancoding.com/sketch -->
    <desc>Created with Sketch.</desc>
    <defs></defs>
    <g id="Solution-Design" stroke="none" stroke-width="1" fill="none" fill-rule="evenodd">
        <g id="Jobs_sol" transform="translate(-81.000000, -17.000000)" fill="#458100">
            <g id="header">
                <g id="Freshdeals-logo" transform="translate(81.000000, 17.000000)">
                    <path d="M16.4244444,7.1424 L15.3177778,7.1424 C15.1106667,6.36551111 14.6804444,5.53351111 14.0262222,4.64817778 C13.372,3.76284444 12.7444444,3.27573333 12.1453333,3.18773333 C11.8395556,3.14862222 11.4786667,3.11928889 11.06,3.09884444 C10.6422222,3.07928889 10.1675556,3.06951111 9.636,3.06951111 L6.124,3.06951111 L6.124,11.4810667 L8.53555556,11.4810667 C9.26533333,11.4810667 9.83155556,11.4046222 10.2368889,11.2526222 C10.6413333,11.0997333 10.9862222,10.8659556 11.2724444,10.5512889 C11.4688889,10.3352889 11.6493333,9.99751111 11.812,9.54062222 C11.9746667,9.08284444 12.0804444,8.59395556 12.1302222,8.07217778 L13.2368889,8.07217778 L13.2368889,16.3068444 L12.1302222,16.3068444 C12.1008889,15.8739556 11.9995556,15.3824 11.8271111,14.8304 C11.6546667,14.2801778 11.4688889,13.8819556 11.2724444,13.6357333 C10.9764444,13.2721778 10.604,13.0232889 10.1551111,12.8899556 C9.70622222,12.7575111 9.16666667,12.6908444 8.53555556,12.6908444 L6.124,12.6908444 L6.124,19.8952889 C6.124,20.2197333 6.188,20.5095111 6.316,20.7646222 C6.44311111,21.0206222 6.66977778,21.2268444 6.99511111,21.3832889 C7.14266667,21.4526222 7.46177778,21.5352889 7.95422222,21.6339556 C8.44577778,21.7326222 8.81911111,21.7868444 9.07511111,21.7957333 L9.07511111,22.8437333 L-0.000444444444,22.8437333 L-0.000444444444,21.7957333 C0.294666667,21.7761778 0.688444444,21.7441778 1.18088889,21.6997333 C1.67244444,21.6561778 1.99244444,21.5992889 2.14,21.5308444 C2.43511111,21.4028444 2.64844444,21.2135111 2.78177778,20.9619556 C2.91422222,20.7112889 2.98088889,20.4090667 2.98088889,20.0544 L2.98088889,4.94328889 C2.98088889,4.61884444 2.92666667,4.33084444 2.81822222,4.08017778 C2.70977778,3.82951111 2.484,3.62506667 2.14,3.46773333 C1.87422222,3.34062222 1.51688889,3.22684444 1.06977778,3.12817778 C0.621777778,3.0304 0.265333333,2.97173333 -0.000444444444,2.95128889 L-0.000444444444,1.90328889 L16.4244444,1.90328889 L16.4244444,7.1424 Z" id="Fill-1"></path>
                    <path d="M29.0416889,10.1675556 C29.0416889,10.6688889 28.9181333,11.1142222 28.6728,11.5026667 C28.4265778,11.892 28.0479111,12.0857778 27.5368,12.0857778 C26.9856889,12.0857778 26.5643556,11.9435556 26.2745778,11.6582222 C25.9848,11.3728889 25.8390222,11.0582222 25.8390222,10.7133333 C25.8390222,10.4973333 25.8568,10.3 25.8914667,10.1231111 C25.9252444,9.94622222 25.9572444,9.76933333 25.9865778,9.59244444 C25.5243556,9.59244444 24.9839111,9.77911111 24.3634667,10.1524444 C23.7439111,10.5266667 23.2176889,11.0582222 22.7848,11.7462222 L22.7848,20.2173333 C22.7848,20.5613333 22.8514667,20.8422222 22.9839111,21.0582222 C23.1163556,21.2751111 23.3252444,21.4368889 23.6114667,21.5453333 C23.8568,21.644 24.1741333,21.7177778 24.5625778,21.7666667 C24.9510222,21.8155556 25.2879111,21.8502222 25.5741333,21.8697778 L25.5741333,22.844 L17.9003556,22.844 L17.9003556,21.8697778 C18.1261333,21.8502222 18.3599111,21.8306667 18.6008,21.8111111 C18.8416889,21.7915556 19.0514667,21.7524444 19.2283556,21.6928889 C19.5039111,21.6048889 19.7083556,21.4502222 19.8408,21.2288889 C19.9732444,21.0075556 20.0399111,20.7204444 20.0399111,20.3666667 L20.0399111,11.3897778 C20.0399111,11.0857778 19.9679111,10.7853333 19.8256889,10.4911111 C19.6834667,10.196 19.4843556,9.96044444 19.2283556,9.78355556 C19.0416889,9.66533333 18.8194667,9.57911111 18.5643556,9.52577778 C18.3083556,9.47155556 18.0328,9.43511111 17.7376889,9.41466667 L17.7376889,8.44133333 L22.5785778,8.116 L22.7848,8.32311111 L22.7848,10.3737778 L22.8585778,10.3737778 C23.4683556,9.57733333 24.1474667,8.972 24.8950222,8.55866667 C25.6425778,8.14622222 26.3261333,7.93911111 26.9465778,7.93911111 C27.5661333,7.93911111 28.0701333,8.14088889 28.4585778,8.54444444 C28.8470222,8.948 29.0416889,9.48844444 29.0416889,10.1675556" id="Fill-4"></path>
                    <path d="M39.3424889,13.8715556 C39.3424889,13.3222222 39.2953778,12.7337778 39.2020444,12.1062222 C39.1087111,11.4786667 38.9584889,10.9542222 38.7522667,10.532 C38.5256,10.0804444 38.2153778,9.71333333 37.8224889,9.428 C37.4287111,9.14444444 36.9220444,9.00133333 36.3024889,9.00133333 C35.2696,9.00133333 34.4109333,9.43066667 33.7273778,10.2893333 C33.0438222,11.1471111 32.6722667,12.3417778 32.6136,13.8715556 L39.3424889,13.8715556 Z M42.6038222,19.42 C41.9931556,20.5808889 41.1771556,21.5062222 40.1540444,22.1942222 C39.1309333,22.8831111 37.9549333,23.2271111 36.6269333,23.2271111 C35.4562667,23.2271111 34.4304889,23.0208889 33.5504889,22.6075556 C32.6696,22.1942222 31.9442667,21.6333333 31.3736,20.9257778 C30.8029333,20.2173333 30.3780444,19.3906667 30.0971556,18.4457778 C29.8171556,17.5017778 29.6767111,16.5035556 29.6767111,15.4502222 C29.6767111,14.5062222 29.8260444,13.5791111 30.1264889,12.6688889 C30.4269333,11.7595556 30.8669333,10.94 31.4473778,10.212 C32.0082667,9.51333333 32.7042667,8.94977778 33.5353778,8.52222222 C34.3664889,8.09377778 35.2989333,7.88044444 36.3318222,7.88044444 C37.3949333,7.88044444 38.3042667,8.04755556 39.0624889,8.38177778 C39.8198222,8.71688889 40.4349333,9.17377778 40.9069333,9.75422222 C41.3593778,10.3053333 41.6962667,10.9551111 41.9176,11.7026667 C42.1389333,12.4502222 42.2500444,13.2617778 42.2500444,14.1373333 L42.2500444,15.1115556 L32.6136,15.1115556 C32.6136,16.068 32.7042667,16.9355556 32.8864889,17.7142222 C33.0678222,18.4928889 33.3558222,19.1782222 33.7496,19.7702222 C34.1336,20.3417778 34.6349333,20.7933333 35.2544889,21.1231111 C35.8749333,21.4537778 36.6127111,21.6191111 37.4687111,21.6191111 C38.3433778,21.6191111 39.0989333,21.4137778 39.7336,21.0031111 C40.3682667,20.5933333 40.9807111,19.8537778 41.5709333,18.7853333 L42.6038222,19.42 Z" id="Fill-6"></path>
                    <path d="M53.8928,15.7161778 C54.2963556,16.0699556 54.6056889,16.4788444 54.8225778,16.9410667 C55.0385778,17.4032889 55.1470222,17.9695111 55.1470222,18.6379556 C55.1470222,19.9864 54.6430222,21.0877333 53.6341333,21.9437333 C52.6261333,22.7997333 51.3194667,23.2272889 49.7168,23.2272889 C48.8705778,23.2272889 48.0910222,23.0744 47.3772444,22.7704 C46.6643556,22.4655111 46.1550222,22.1846222 45.8501333,21.9286222 L45.5550222,22.8877333 L44.4483556,22.8877333 L44.3008,17.8264 L45.3185778,17.8264 C45.3976889,18.2112889 45.5648,18.6610667 45.8208,19.1739556 C46.0768,19.6877333 46.3861333,20.1517333 46.7505778,20.5659556 C47.1336889,21.0006222 47.5941333,21.3659556 48.1301333,21.6619556 C48.6661333,21.9579556 49.2688,22.1055111 49.9381333,22.1055111 C50.8821333,22.1055111 51.6101333,21.8904 52.1221333,21.4601778 C52.6332444,21.0299556 52.8892444,20.4139556 52.8892444,19.6121778 C52.8892444,19.1988444 52.8083556,18.8424 52.6456889,18.5419556 C52.4839111,18.2424 52.2448,17.9792889 51.9301333,17.7526222 C51.6056889,17.5268444 51.2074667,17.3224 50.7345778,17.1401778 C50.2625778,16.9579556 49.7363556,16.7784 49.1559111,16.6015111 C48.6928,16.4637333 48.1790222,16.2744 47.6136889,16.0335111 C47.0474667,15.7926222 46.5630222,15.5099556 46.1603556,15.1846222 C45.7265778,14.8406222 45.3728,14.4175111 45.0972444,13.9161778 C44.8216889,13.4139556 44.6848,12.8237333 44.6848,12.1446222 C44.6848,10.9552889 45.1274667,9.9464 46.0128,9.11973333 C46.8981333,8.29306667 48.0830222,7.88062222 49.5692444,7.88062222 C50.1390222,7.88062222 50.7221333,7.9544 51.3176889,8.10195556 C51.9123556,8.24951111 52.3968,8.4264 52.7710222,8.63262222 L53.1105778,7.86551111 L54.1728,7.86551111 L54.3941333,12.5437333 L53.3763556,12.5437333 C53.1701333,11.4966222 52.7248,10.6441778 52.0412444,9.98728889 C51.3568,9.3304 50.5230222,9.00151111 49.5399111,9.00151111 C48.7328,9.00151111 48.0981333,9.20506667 47.6359111,9.61128889 C47.1728,10.0175111 46.9425778,10.5081778 46.9425778,11.0824 C46.9425778,11.5250667 47.0181333,11.8939556 47.1710222,12.1890667 C47.3230222,12.4841778 47.5523556,12.7348444 47.8572444,12.9419556 C48.1523556,13.1392889 48.5230222,13.3232889 48.9710222,13.4948444 C49.4190222,13.6672889 49.9719111,13.8619556 50.6314667,14.0779556 C51.2812444,14.2850667 51.8928,14.5259556 52.4688,14.8015111 C53.0439111,15.0770667 53.5185778,15.3819556 53.8928,15.7161778" id="Fill-8"></path>
                    <path d="M72.5763556,22.8437333 L65.4190222,22.8437333 L65.4190222,21.8695111 C65.6448,21.8499556 65.8954667,21.8304 66.1710222,21.8108444 C66.4465778,21.7912889 66.6732444,21.7512889 66.8501333,21.6926222 C67.1256889,21.6037333 67.3301333,21.4490667 67.4625778,21.2277333 C67.5950222,21.0064 67.6616889,20.7184 67.6616889,20.3646222 L67.6616889,12.8828444 C67.6616889,11.8499556 67.4172444,11.0526222 66.9292444,10.4917333 C66.4412444,9.93173333 65.8474667,9.65084444 65.1470222,9.65084444 C64.6341333,9.65084444 64.1585778,9.73262222 63.7203556,9.8944 C63.2803556,10.0570667 62.8892444,10.2561778 62.5434667,10.4917333 C62.2083556,10.7379556 61.9523556,10.9841778 61.7745778,11.2304 C61.5968,11.4757333 61.4590222,11.6828444 61.3603556,11.8499556 L61.3603556,20.2170667 C61.3603556,20.5512889 61.4270222,20.8268444 61.5594667,21.0437333 C61.6928,21.2597333 61.8963556,21.4268444 62.1719111,21.5450667 C62.3888,21.6437333 62.6128,21.7175111 62.8439111,21.7664 C63.0750222,21.8161778 63.3283556,21.8499556 63.6039111,21.8695111 L63.6039111,22.8437333 L56.4759111,22.8437333 L56.4759111,21.8695111 C56.7008,21.8499556 56.9354667,21.8277333 57.1799111,21.8037333 C57.4234667,21.7788444 57.6288,21.7415111 57.7950222,21.6926222 C58.0688,21.6037333 58.2741333,21.4490667 58.4101333,21.2277333 C58.5470222,21.0064 58.6154667,20.7175111 58.6154667,20.3628444 L58.6154667,3.41084444 C58.6154667,3.07573333 58.5390222,2.74151111 58.3870222,2.4064 C58.2341333,2.07128889 58.0350222,1.82062222 57.7896889,1.65351111 C57.6128,1.52551111 57.2999111,1.43395556 56.8528,1.38062222 C56.4048,1.32551111 56.0430222,1.28906667 55.7674667,1.26951111 L55.7674667,0.324622222 L61.1541333,0.000177777778 L61.3603556,0.221511111 L61.3603556,10.3744 L61.4199111,10.3744 C61.7443556,10.0490667 62.0403556,9.76195556 62.3061333,9.5104 C62.5728,9.25973333 62.9221333,8.99662222 63.3559111,8.72106667 C63.7301333,8.48551111 64.1710222,8.28817778 64.6785778,8.13084444 C65.1861333,7.97351111 65.7559111,7.89528889 66.3861333,7.89528889 C67.6865778,7.89528889 68.6874667,8.30595556 69.3870222,9.12728889 C70.0865778,9.94862222 70.4359111,11.1317333 70.4359111,12.6766222 L70.4359111,20.2464 C70.4359111,20.5912889 70.4981333,20.8686222 70.6216889,21.0801778 C70.7443556,21.2917333 70.9514667,21.4561778 71.2376889,21.5744 C71.4670222,21.6632889 71.6714667,21.7299556 71.8554667,21.7735111 C72.0385778,21.8179556 72.2794667,21.8499556 72.5763556,21.8695111 L72.5763556,22.8437333 Z" id="Fill-10"></path>
                    <path d="M91.1544889,12.4917333 C91.1544889,11.0855111 90.9678222,9.81528889 90.5936,8.68017778 C90.2193778,7.54506667 89.6736,6.55395556 88.9553778,5.70862222 C88.2771556,4.9024 87.4424889,4.26951111 86.4549333,3.8064 C85.4656,3.34417778 84.3660444,3.11395556 83.1562667,3.11395556 C82.7527111,3.11395556 82.2976,3.12106667 81.7918222,3.13617778 C81.2842667,3.1504 80.9082667,3.16284444 80.6620444,3.17262222 L80.6620444,19.2597333 C80.6620444,20.1548444 80.9224889,20.7735111 81.4442667,21.1175111 C81.9660444,21.4615111 82.7669333,21.6339556 83.8496,21.6339556 C85.0993778,21.6339556 86.1909333,21.4126222 87.1260444,20.9708444 C88.0611556,20.5281778 88.8176,19.9139556 89.3980444,19.1272889 C90.0087111,18.3015111 90.4531556,17.3450667 90.7340444,16.2588444 C91.0140444,15.1726222 91.1544889,13.9175111 91.1544889,12.4917333 M94.7696,12.4988444 C94.7696,14.2801778 94.4353778,15.8250667 93.7660444,17.1326222 C93.0976,18.4410667 92.2264889,19.5139556 91.1544889,20.3495111 C90.0718222,21.1859556 88.8576,21.8108444 87.5091556,22.2241778 C86.1616,22.6375111 84.7696,22.8437333 83.3331556,22.8437333 L74.6558222,22.8437333 L74.6558222,21.7957333 C74.9420444,21.7957333 75.3127111,21.7690667 75.7704889,21.7148444 C76.2273778,21.6606222 76.5304889,21.5992889 76.6780444,21.5299556 C76.9731556,21.4028444 77.1873778,21.2135111 77.3198222,20.9619556 C77.4531556,20.7112889 77.5189333,20.4090667 77.5189333,20.0544 L77.5189333,4.94328889 C77.5189333,4.60906667 77.4629333,4.30862222 77.3491556,4.04373333 C77.2362667,3.77795556 77.0122667,3.5664 76.6780444,3.40906667 C76.3731556,3.26151111 76.0433778,3.15306667 75.6896,3.08462222 C75.3349333,3.01528889 75.0300444,2.97173333 74.7740444,2.95128889 L74.7740444,1.90328889 L83.9233778,1.90328889 C85.1829333,1.90328889 86.4229333,2.09795556 87.6424889,2.4864 C88.8620444,2.87573333 89.9242667,3.39928889 90.8300444,4.05795556 C92.0602667,4.9344 93.0238222,6.08017778 93.7224889,7.49617778 C94.4211556,8.91306667 94.7696,10.5806222 94.7696,12.4988444" id="Fill-12"></path>
                    <path d="M106.0304,13.8715556 C106.0304,13.3222222 105.983289,12.7337778 105.890844,12.1062222 C105.796622,11.4786667 105.6464,10.9542222 105.440178,10.532 C105.213511,10.0804444 104.903289,9.71333333 104.5104,9.428 C104.117511,9.14444444 103.609956,9.00133333 102.9904,9.00133333 C101.957511,9.00133333 101.098844,9.43066667 100.415289,10.2893333 C99.7317333,11.1471111 99.3601778,12.3417778 99.3015111,13.8715556 L106.0304,13.8715556 Z M109.291733,19.42 C108.681067,20.5808889 107.865067,21.5062222 106.841956,22.1942222 C105.818844,22.8831111 104.642844,23.2271111 103.314844,23.2271111 C102.144178,23.2271111 101.119289,23.0208889 100.237511,22.6075556 C99.3575111,22.1942222 98.6321778,21.6333333 98.0615111,20.9257778 C97.4917333,20.2173333 97.0659556,19.3906667 96.7850667,18.4457778 C96.5050667,17.5017778 96.3646222,16.5035556 96.3646222,15.4502222 C96.3646222,14.5062222 96.5148444,13.5791111 96.8144,12.6688889 C97.1148444,11.7595556 97.5548444,10.94 98.1352889,10.212 C98.6961778,9.51333333 99.3921778,8.94977778 100.224178,8.52222222 C101.0544,8.09377778 101.986844,7.88044444 103.019733,7.88044444 C104.082844,7.88044444 104.992178,8.04755556 105.7504,8.38177778 C106.507733,8.71688889 107.122844,9.17377778 107.594844,9.75422222 C108.047289,10.3053333 108.383289,10.9551111 108.605511,11.7026667 C108.826844,12.4502222 108.937956,13.2617778 108.937956,14.1373333 L108.937956,15.1115556 L99.3015111,15.1115556 C99.3015111,16.068 99.3921778,16.9355556 99.5744,17.7142222 C99.7557333,18.4928889 100.044622,19.1782222 100.437511,19.7702222 C100.821511,20.3417778 101.322844,20.7933333 101.9424,21.1231111 C102.562844,21.4537778 103.300622,21.6191111 104.156622,21.6191111 C105.032178,21.6191111 105.786844,21.4137778 106.421511,21.0031111 C107.055289,20.5933333 107.668622,19.8537778 108.258844,18.7853333 L109.291733,19.42 Z" id="Fill-14"></path>
                    <path d="M119.606756,14.7864889 C118.7712,15.0327111 118.036978,15.2744889 117.407644,15.5109333 C116.778311,15.7482667 116.192533,16.0433778 115.652089,16.3980444 C115.159644,16.7331556 114.772089,17.1304889 114.485867,17.5891556 C114.200533,18.0469333 114.058311,18.5927111 114.058311,19.2229333 C114.058311,20.0416 114.272533,20.6424889 114.6992,21.0273778 C115.128533,21.4122667 115.671644,21.6042667 116.330311,21.6042667 C117.029867,21.6042667 117.644089,21.4344889 118.175644,21.0940444 C118.706311,20.7536 119.154311,20.3518222 119.517867,19.8887111 L119.606756,14.7864889 Z M124.756978,22.5784889 C124.293867,22.7456 123.888533,22.8807111 123.540089,22.9838222 C123.189867,23.0869333 122.794311,23.1384889 122.351644,23.1384889 C121.584533,23.1384889 120.972089,22.9589333 120.514311,22.6007111 C120.057422,22.2416 119.764089,21.7171556 119.636089,21.0282667 L119.548089,21.0282667 C118.908089,21.7367111 118.221867,22.2780444 117.489422,22.6522667 C116.756089,23.0256 115.873422,23.2122667 114.840533,23.2122667 C113.748089,23.2122667 112.850311,22.8780444 112.1472,22.2096 C111.4432,21.5402667 111.092089,20.6647111 111.092089,19.5829333 C111.092089,19.0220444 111.1712,18.5198222 111.328533,18.0771556 C111.484978,17.6344889 111.721422,17.2362667 112.036089,16.8816 C112.282311,16.5864889 112.606756,16.3233778 113.010311,16.0922667 C113.413867,15.8611556 113.792533,15.6771556 114.146311,15.5393778 C114.588978,15.3722667 115.486756,15.0620444 116.840533,14.6096 C118.192533,14.1571556 119.105422,13.8033778 119.577422,13.5464889 L119.577422,12.0860444 C119.577422,11.9580444 119.550756,11.7127111 119.496533,11.3482667 C119.441422,10.9847111 119.326756,10.6398222 119.148978,10.3153778 C118.952533,9.95182222 118.674311,9.63448889 118.316089,9.36337778 C117.956978,9.09315556 117.446756,8.95715556 116.788089,8.95715556 C116.335644,8.95715556 115.9152,9.0336 115.525867,9.18648889 C115.138311,9.33937778 114.864533,9.49848889 114.7072,9.6656 C114.7072,9.86293333 114.754311,10.1527111 114.847644,10.5367111 C114.940978,10.9198222 114.988089,11.2744889 114.988089,11.5989333 C114.988089,11.9438222 114.833422,12.2584889 114.522311,12.5438222 C114.213867,12.8291556 113.782756,12.9713778 113.231644,12.9713778 C112.7392,12.9713778 112.378311,12.7971556 112.1472,12.4478222 C111.916089,12.0984889 111.800533,11.7073778 111.800533,11.2744889 C111.800533,10.8220444 111.959644,10.3891556 112.279644,9.97582222 C112.599644,9.56248889 113.015644,9.1936 113.526756,8.86915556 C113.969422,8.5936 114.506311,8.35982222 115.135644,8.16782222 C115.764978,7.97582222 116.380089,7.87982222 116.980089,7.87982222 C117.806756,7.87982222 118.526756,7.93671111 119.142756,8.0496 C119.756978,8.16337778 120.3152,8.40693333 120.816533,8.78026667 C121.318756,9.14471111 121.6992,9.63893333 121.959644,10.2638222 C122.220978,10.8887111 122.351644,11.6931556 122.351644,12.6762667 C122.351644,14.0833778 122.336533,15.3304889 122.3072,16.4167111 C122.277867,17.5047111 122.262756,18.6922667 122.262756,19.9811556 C122.262756,20.3642667 122.329422,20.6700444 122.461867,20.8958222 C122.5952,21.1224889 122.799644,21.3144889 123.074311,21.4718222 C123.221867,21.5598222 123.455644,21.6096 123.775644,21.6193778 C124.095644,21.6291556 124.422756,21.6336 124.756978,21.6336 L124.756978,22.5784889 Z" id="Fill-16"></path>
                    <path d="M133.0208,22.8437333 L125.923022,22.8437333 L125.923022,21.8695111 C126.149689,21.8499556 126.389689,21.8277333 126.645689,21.8037333 C126.901689,21.7788444 127.113244,21.7415111 127.280356,21.6926222 C127.555911,21.6037333 127.762133,21.4490667 127.899911,21.2277333 C128.038578,21.0064 128.107022,20.7175111 128.107022,20.3628444 L128.107022,3.49884444 C128.107022,3.14417778 128.030578,2.81262222 127.878578,2.5024 C127.725689,2.19217778 127.525689,1.94862222 127.280356,1.77084444 C127.103467,1.65351111 126.779022,1.54506667 126.306133,1.4464 C125.834133,1.34773333 125.455467,1.28906667 125.170133,1.26951111 L125.170133,0.324622222 L130.6448,0.000177777778 L130.851911,0.221511111 L130.851911,20.1877333 C130.851911,20.5317333 130.915911,20.8144 131.043022,21.0357333 C131.171022,21.2570667 131.377244,21.4268444 131.663467,21.5450667 C131.879467,21.6437333 132.093689,21.7175111 132.305244,21.7664 C132.5168,21.8161778 132.755022,21.8499556 133.0208,21.8695111 L133.0208,22.8437333 Z" id="Fill-18"></path>
                    <path d="M145.3872,16.9410667 C145.6032,17.4032889 145.711644,17.9695111 145.711644,18.6379556 C145.711644,19.9864 145.207644,21.0877333 144.199644,21.9437333 C143.190756,22.7997333 141.884089,23.2272889 140.281422,23.2272889 C139.4352,23.2272889 138.655644,23.0744 137.942756,22.7704 C137.228978,22.4655111 136.719644,22.1846222 136.414756,21.9286222 L136.119644,22.8877333 L135.012978,22.8877333 L134.865422,17.8264 L135.8832,17.8264 C135.962311,18.2112889 136.129422,18.6610667 136.385422,19.1739556 C136.641422,19.6877333 136.951644,20.1517333 137.3152,20.5659556 C137.698311,21.0006222 138.158756,21.3659556 138.694756,21.6619556 C139.230756,21.9579556 139.833422,22.1055111 140.502756,22.1055111 C141.446756,22.1055111 142.175644,21.8904 142.686756,21.4601778 C143.197867,21.0299556 143.453867,20.4139556 143.453867,19.6121778 C143.453867,19.1988444 143.372978,18.8424 143.210311,18.5419556 C143.048533,18.2424 142.809422,17.9792889 142.494756,17.7526222 C142.170311,17.5268444 141.772089,17.3224 141.2992,17.1401778 C140.8272,16.9579556 140.300978,16.7784 139.720533,16.6015111 C139.257422,16.4637333 138.743644,16.2744 138.1792,16.0335111 C137.612978,15.7926222 137.128533,15.5099556 136.724978,15.1846222 C136.2912,14.8406222 135.937422,14.4175111 135.661867,13.9161778 C135.3872,13.4139556 135.249422,12.8237333 135.249422,12.1446222 C135.249422,10.9552889 135.692089,9.9464 136.577422,9.11973333 C137.462756,8.29306667 138.648533,7.88062222 140.133867,7.88062222 C140.703644,7.88062222 141.287644,7.9544 141.882311,8.10195556 C142.476978,8.24951111 142.961422,8.4264 143.335644,8.63262222 L143.6752,7.86551111 L144.737422,7.86551111 L144.958756,12.5437333 L143.940978,12.5437333 C143.734756,11.4966222 143.289422,10.6441778 142.605867,9.98728889 C141.921422,9.3304 141.087644,9.00151111 140.104533,9.00151111 C139.297422,9.00151111 138.662756,9.20506667 138.200533,9.61128889 C137.737422,10.0175111 137.5072,10.5081778 137.5072,11.0824 C137.5072,11.5250667 137.583644,11.8939556 137.735644,12.1890667 C137.887644,12.4841778 138.116978,12.7348444 138.421867,12.9419556 C138.716978,13.1392889 139.088533,13.3232889 139.536533,13.4948444 C139.983644,13.6672889 140.537422,13.8619556 141.196089,14.0779556 C141.845867,14.2850667 142.458311,14.5259556 143.032533,14.8015111 C143.609422,15.0770667 144.0832,15.3819556 144.457422,15.7161778 C144.860978,16.0699556 145.1712,16.4788444 145.3872,16.9410667 Z" id="Fill-20"></path>
                    <path d="M138.577698,37.9512329 C138.430875,38.355192 134.319181,37.7088857 131.657494,37.3103143 C130.058458,37.0581714 128.445928,36.8846 126.847735,36.6710286 C125.247855,36.4610286 123.651349,36.2617429 122.048096,36.1217429 C120.444843,35.9667429 118.848337,35.8124571 117.256048,35.6581714 C115.655325,35.5460286 114.059663,35.4346 112.467373,35.3231714 C112.474964,35.2260286 77.2329157,34.0110286 59.0059277,35.5860286 C59.6595422,35.5974571 42.8831566,37.0546 28.6141205,38.1417429 C27.407253,38.2438857 24.9893012,38.4496 23.7799036,38.5517429 C18.923759,38.7024571 8.96520482,39.4167429 9.04701205,39.1196 C9.13050602,38.8346 15.0543614,37.5524571 15.037494,37.4567429 C10.1636386,37.8360286 6.75725301,38.0403143 5.72918072,37.7760286 C4.71291566,37.5367429 6.07918072,36.7453143 10.957253,35.7796 C16.4433976,34.7424571 22.9314699,34.1160286 29.6556867,33.6296 C36.374,33.1417429 43.3815904,32.6610286 50.0982169,32.1038857 C59.8678554,31.3367429 69.6779759,30.6703143 79.5277349,30.5696 C82.910506,30.5167429 86.3793012,30.5396 89.8801446,30.5181714 C93.3852048,30.5588857 96.9273735,30.5610286 100.472916,30.6853143 C104.015928,30.7517429 107.55894,30.9674571 111.05894,31.1574571 C114.557253,31.4281714 118.014241,31.6796 121.376771,32.1074571 C122.600506,32.2503143 124.062072,32.3417429 125.592795,32.5174571 C127.123518,32.6810286 128.734361,32.8524571 130.266771,33.0160286 C133.32906,33.3546 136.064964,33.8088857 137.254964,34.1103143 C138.391724,34.3527832 138.505965,34.5521174 138.676892,34.9060286 C139.264038,36.1217429 138.952271,36.9206543 138.577698,37.9512329 Z" id="Fill-22"></path>
                </g>
            </g>
        </g>
    </g>
</svg>